<?xml version="1.0" encoding="utf-8"?>
<!-- Generator: Adobe Illustrator 22.0.0, SVG Export Plug-In . SVG Version: 6.00 Build 0)  -->
<svg version="1.1" id="Capa_1" xmlns="http://www.w3.org/2000/svg" xmlns:xlink="http://www.w3.org/1999/xlink" x="0px" y="0px"
	 viewBox="0 0 36 36.1" style="enable-background:new 0 0 36 36.1;" xml:space="preserve">
<style type="text/css">
	.st0{fill:#FFFFFF;}
</style>
<g>
	<g>
		<path class="st0" d="M31.8,0H4.2C1.9,0,0,1.9,0,4.2v27.6C0,34.1,1.9,36,4.2,36h27.6c2.3,0,4.2-1.9,4.2-4.2V4.2
			C36,1.9,34.1,0,31.8,0z M33.2,31.8c0,0.8-0.6,1.4-1.4,1.4h-8V21.7h4.3l0.7-4.4h-5.1v-3c0-1.2,0.9-2.1,2.1-2.1h2.9V7.9h-2.9
			c-3.6,0-6.5,2.9-6.5,6.5v3h-4.2v4.4h4.2v11.5H4.2c-0.8,0-1.4-0.6-1.4-1.4V4.2c0-0.8,0.6-1.4,1.4-1.4h27.6c0.8,0,1.4,0.6,1.4,1.4
			V31.8z"/>
	</g>
</g>
</svg>
