<?xml version="1.0" encoding="utf-8"?>
<!-- Generator: Adobe Illustrator 22.0.0, SVG Export Plug-In . SVG Version: 6.00 Build 0)  -->
<svg version="1.1" id="Capa_1" xmlns="http://www.w3.org/2000/svg" xmlns:xlink="http://www.w3.org/1999/xlink" x="0px" y="0px"
	 viewBox="0 0 36.3 36.2" style="enable-background:new 0 0 36.3 36.2;" xml:space="preserve">
<style type="text/css">
	.st0{fill:#FFFFFF;}
</style>
<g>
	<g>
		<g>
			<path class="st0" d="M24.8,0H11.3C5,0,0,5,0,11.3v13.5C0,31,5,36,11.3,36h13.5C31,36,36,31,36,24.8V11.3C36,5,31,0,24.8,0z
				 M32.6,24.8c0,4.3-3.5,7.9-7.9,7.9H11.3c-4.3,0-7.9-3.5-7.9-7.9V11.3c0-4.3,3.5-7.9,7.9-7.9h13.5c4.3,0,7.9,3.5,7.9,7.9V24.8z"/>
		</g>
	</g>
	<g>
		<g>
			<path class="st0" d="M18,9c-5,0-9,4-9,9s4,9,9,9s9-4,9-9S23,9,18,9z M18,23.6c-3.1,0-5.6-2.5-5.6-5.6c0-3.1,2.5-5.6,5.6-5.6
				s5.6,2.5,5.6,5.6C23.6,21.1,21.1,23.6,18,23.6z"/>
		</g>
	</g>
	<g>
		<g>
			<circle class="st0" cx="27.7" cy="8.3" r="1.2"/>
		</g>
	</g>
</g>
</svg>
