<?xml version="1.0" encoding="utf-8"?>
<!-- Generator: Adobe Illustrator 22.0.0, SVG Export Plug-In . SVG Version: 6.00 Build 0)  -->
<svg version="1.1" id="Capa_1" xmlns="http://www.w3.org/2000/svg" xmlns:xlink="http://www.w3.org/1999/xlink" x="0px" y="0px"
	 viewBox="0 0 36.2 31.8" style="enable-background:new 0 0 36.2 31.8;" xml:space="preserve">
<style type="text/css">
	.st0{fill:#FFFFFF;}
</style>
<path class="st0" d="M13.9,30.9c-6,0-10.8-1-13-2.9l0,0l0,0C0.2,27.4,0,26.7,0.3,26l0-0.1c0.3-0.7,1-1.2,1.7-1.2
	c1.5,0,2.9-0.2,4.1-0.6c-1.9-0.9-3.3-2.5-4.1-4.7c-0.3-0.7,0-1.5,0.6-2c0.2-0.1,0.3-0.2,0.5-0.3C2,16,1.2,14.6,0.8,13.1l0,0l0,0
	c-0.2-0.8,0.2-1.5,0.8-1.9c0.3-0.1,0.5-0.2,0.8-0.2c-0.3-0.7-0.5-1.3-0.7-2C1.4,7,1.7,5.1,2.6,3.2l0.2-0.4C3,2.4,3.4,2.2,3.8,2.1
	C4.2,2,4.6,2.2,4.9,2.4l0.4,0.4c3.2,3.4,6.1,5,11.1,6.1c0.2-1.9,1-3.7,2.4-5.1c1.6-1.7,3.7-2.6,6-2.6h0c1.6,0,3.7,0.9,4.9,1.6
	c1.1-0.3,2.3-0.9,3.7-1.5c0.6-0.3,1.4-0.2,1.9,0.3c0.5,0.5,0.6,1.2,0.4,1.8c-0.1,0.3-0.2,0.5-0.3,0.8c0.2,0.1,0.3,0.2,0.5,0.3
	c0.4,0.4,0.6,1.1,0.5,1.7l0,0.1c-0.5,1.6-1.5,3-2.8,3.8C33.1,21.7,24.5,30.9,13.9,30.9z M2.9,26.9c2.1,1.2,6.2,1.9,11,1.9
	c4.6,0,8.9-2,12.2-5.6c3.3-3.6,5.1-8.4,5.1-13.5V9.7c0-0.5,0.3-0.9,0.7-1.1c0.8-0.4,1.5-1.2,1.9-2.1c-0.5,0.1-0.9-0.1-1.2-0.5
	c-0.3-0.4-0.3-1,0-1.5C32.8,4.2,33,4,33.1,3.7c-1.1,0.5-2.2,0.9-3.2,1.2c-0.3,0.1-0.7,0.1-1-0.1c-1.7-0.9-3.2-1.5-4.2-1.5
	c-3.5,0.1-6.3,3-6.3,6.7c0,0.4-0.2,0.7-0.5,1c-0.3,0.2-0.7,0.3-1,0.3c-5.7-1.1-9.1-2.8-12.7-6.4C3.7,6,3.6,7.2,3.8,8.5
	C4,9.7,4.7,10.9,5.6,12C6,12.4,6,13,5.8,13.5c-0.3,0.5-0.8,0.7-1.4,0.5c-0.4-0.1-0.8-0.3-1.2-0.4c0.7,1.6,2,3.1,3.6,4.2
	c0.5,0.3,0.7,0.9,0.5,1.4C7.1,19.7,6.6,20.1,6,20c-0.6,0-1.2-0.2-1.7-0.4c0.9,1.8,2.3,2.8,4.5,3.2c0.5,0.1,0.9,0.5,1,1
	c0.1,0.5-0.2,1-0.6,1.3C7.4,26.2,5.3,26.7,2.9,26.9z"/>
</svg>
