<?xml version="1.0" encoding="utf-8"?>
<!-- Generator: Adobe Illustrator 22.0.0, SVG Export Plug-In . SVG Version: 6.00 Build 0)  -->
<svg version="1.1" id="Capa_1" xmlns="http://www.w3.org/2000/svg" xmlns:xlink="http://www.w3.org/1999/xlink" x="0px" y="0px"
	 viewBox="0 0 36.1 26.1" style="enable-background:new 0 0 36.1 26.1;" xml:space="preserve">
<style type="text/css">
	.st0{fill:#FFFFFF;}
</style>
<path class="st0" d="M18,26C18,26,18,26,18,26c-1.1,0-10.7-0.1-13.4-0.8c-1.9-0.5-3.4-2-3.9-3.9C0,18.6,0,13.5,0,13
	C0,12.6,0,7.4,0.7,4.8c0,0,0,0,0,0c0.5-1.9,2-3.4,3.9-3.9c0,0,0,0,0,0C7.3,0.1,16.9,0,18,0h0c1.1,0,10.7,0.1,13.4,0.8
	c1.9,0.5,3.4,2,3.9,3.9c0.7,2.7,0.7,7.9,0.7,8.3c0,0.4,0,5.5-0.7,8.2c0,0,0,0,0,0c-0.5,1.9-2,3.4-3.9,3.9c0,0,0,0,0,0
	C28.7,25.9,19.1,26,18,26C18,26,18,26,18,26z M3.4,5.5C2.8,7.9,2.8,13,2.8,13v0c0,1.4,0,5.5,0.6,7.5c0.3,0.9,1,1.7,1.9,1.9
	c2,0.5,9.8,0.7,12.7,0.7c2.9,0,10.7-0.2,12.7-0.7c0.9-0.3,1.7-1,1.9-1.9c0.5-2,0.6-6.1,0.6-7.5c0,0,0,0,0,0c0-1.4,0-5.6-0.6-7.6
	c0,0,0,0,0,0c-0.3-0.9-1-1.7-1.9-1.9C28.7,3,20.9,2.8,18,2.8C15.1,2.8,7.3,3,5.3,3.5C4.4,3.8,3.6,4.5,3.4,5.5z M34,20.9L34,20.9
	L34,20.9z M14.4,18.7V7.3l9.8,5.7L14.4,18.7z"/>
</svg>
