<?xml version="1.0" encoding="utf-8"?>
<!-- Generator: Adobe Illustrator 22.0.0, SVG Export Plug-In . SVG Version: 6.00 Build 0)  -->
<svg version="1.1" id="Capa_1" xmlns="http://www.w3.org/2000/svg" xmlns:xlink="http://www.w3.org/1999/xlink" x="0px" y="0px"
	 viewBox="0 0 245.8 178.2" style="enable-background:new 0 0 245.8 178.2;" xml:space="preserve">
<style type="text/css">
	.st0{display:none;}
	.st1{display:inline;opacity:0.1;fill:#379583;enable-background:new    ;}
	.st2{fill:#67647E;}
	.st3{opacity:0.1;enable-background:new    ;}
	.st4{fill:#EAECF0;}
	.st5{fill:#EFC6CD;}
	.st6{opacity:0.1;fill:#379583;enable-background:new    ;}
	.st7{fill:#D38884;}
	.st8{fill:#A36468;}
	.st9{fill:#D48A9B;}
	.st10{fill:#444053;}
	.st11{opacity:0.1;fill:#444053;enable-background:new    ;}
	.st12{fill:#3A3768;}
	.st13{fill:#DFE6F5;}
	.st14{opacity:0.15;enable-background:new    ;}
	.st15{fill:#4C4C56;}
	.st16{fill:#D1D9EC;}
	.st17{fill:#379583;}
	.st18{opacity:0.1;}
	.st19{fill:#FFFFFF;}
</style>
<g id="Capa_2_1_" class="st0">
	<path class="st1" d="M1102.3,240.8h-85.4V132.1h38c-0.9-1.1-1.9-2.2-2.8-3.4H1017V94.1c-7.1-6-14.4-11.8-22-17.3v52H798V14.5h87.8
		c-2.5-1.1-4.9-2.2-7.4-3.4H798V-20c-7.3-2.4-14.7-4.8-22-7v38H494.9l-0.7-0.6l81.3-77.2c-9-1-17.9-1.9-26.9-2.7L492.3-16v-57.4
		c-7.3-0.4-14.7-0.7-22-1v62.1l-66.8-63.4c-9.9,0-19.7,0.1-29.6,0.2l90.6,85.9l-0.7,0.6H194.4v-76c-7.3,0.9-14.7,2-22,3.1v73H-0.8
		c-0.9,1.1-1.8,2.2-2.7,3.4h175.9v114.3H-9.9c0.6,1.1,1.3,2.3,1.9,3.4h180.3v108.7H83.7c-1.2,1.2-2.4,2.3-3.7,3.4h92.4v111.2
		c7.3,1,14.7,2.1,22,3.3V244.1h275.9v139.3c7.3,0,14.7,0.1,22,0.3V244.1H776v170.6l0.9,0.1c7,0.8,14.1,1.5,21.1,2.2V244.1h196.9
		v168.6c1.7-0.3,3.4-0.6,5-1s3.1-0.6,4.7-1c4.1-0.9,8.2-1.8,12.3-2.8V244.1h86.1C1102.8,243,1102.5,241.9,1102.3,240.8z
		 M470.3,240.8H194.4V132.1h275.9V240.8z M470.3,128.8H194.4V14.5h272l3.9,3.1V128.8z M776,240.8H492.3V132.1H776V240.8z M776,128.8
		H492.3V14.5H776V128.8z M994.9,240.8H798V132.1h196.9V240.8z"/>
</g>
<g>
	<g id="_x31_c51936f-ad83-4493-a1e8-5a7ca1846cda">
		<g>
			<path class="st2" d="M184.9,159.7l-4.1,1.6l-0.5,0.2l-14.6,5.6l-5.6,2.1l-7.6,2.9h-3.1c-9.6,0-19.2-0.2-28.6-0.7
				c1.9-4,5.1-10.5,7.7-12.6c2.1-1.6,16.7-3.4,30.2-4.7c1.7-0.2,3.4-0.3,5-0.5l0.4-0.1c5.4-0.5,10.2-0.9,13.6-1.1l0.5-0.1l4.2-0.3
				l0.4-0.4l0.5,2.3l0.4,1.9L184.9,159.7z"/>
			<path class="st3" d="M184.9,159.7l-4.1,1.6l-0.5,0.2l-14.6,5.6l-5.6,2.1l-7.6,2.9h-3.1c-9.6,0-19.2-0.2-28.6-0.7
				c1.9-4,5.1-10.5,7.7-12.6c2.1-1.6,16.7-3.4,30.2-4.7c1.7-0.2,3.4-0.3,5-0.5l0.4-0.1c5.4-0.5,10.2-0.9,13.6-1.1l0.5-0.1l4.2-0.3
				l0.4-0.4l0.5,2.3l0.4,1.9L184.9,159.7z"/>
			<path class="st2" d="M188.4,154l-0.3,11.2v0.6v0.1l-0.2,5.6l-4,0.1h-0.6c-5.7,0.2-11.3,0.3-17,0.4h-1.5h-0.1H163l-2.5,0.1
				c-2.6,0-5.2,0.1-7.8,0.1h-3.2c2.8-1.7,6.5-3.7,10.5-5.6c1.8-0.9,3.6-1.7,5.4-2.6c4.9-2.3,9.9-4.4,13.9-6.2l0.5-0.2
				c1.6-0.7,3-1.3,4.2-1.7C186.6,154.7,188.3,154,188.4,154L188.4,154z"/>
			<path class="st4" d="M166.3,172h-1.5h-0.1H163l-2.5,0.1l-0.3-2.9l-0.3-2.7l-1.2-12.4l-0.1-0.4v-0.2l-0.3-3.5l5.1-1.9l0.6,5.1
				l0.1,0.4v0.1l1.3,10.3l0.4,3.2l0.2,1.9l0.2,1.6v0.1L166.3,172z"/>
			<path class="st4" d="M66.6,150.1l-0.2,2l-1.2,12.5c-1.9-0.4-3.7-0.8-5.6-1.2l1.4-11.3l0.5-3.9L66.6,150.1z"/>
			<polygon class="st5" points="31.8,146 63.1,101 181,101.3 191.8,146 			"/>
			<path class="st6" d="M188,171.4c-1,0.1-4,0.1-4,0.1h-0.6c-5.7,0.2-11.3,0.3-17,0.4h-1.5l0,0h-1.8l-2.5,0.1
				c-2.6,0-5.2,0.1-7.8,0.1h-3.2c-9.6,0-19.2-0.2-28.6-0.7l-1-0.1c-18.5-1-36.7-3-54.6-6.8c-1.9-0.4-3.7-0.8-5.6-1.2
				c-12.4-2.8-24.6-6.5-36.4-11.1c-5.6-2.2-11.2-4.7-15.4-8.9c-10.8-10.9-5.4-29.7,8.5-35.9c10.9-4.8,22.5-3.4,34.2-5.6
				c0.7-0.2,1.4-0.3,2.1-0.5c1.5-0.5,2.9-1.1,4.4-1.8c0.5-0.2,1-0.5,1.5-0.8c1.1-0.6,2.2-1.3,3.2-2c1.7-1.1,3.3-2.4,4.9-3.7
				c10.9-9.4,0.7-19.5-24.6-26.5c-9.1-2.7-26.6-14.2-21.5-30.8C24.5,23.6,43.8,15.4,58,11c16.8-5.2,45.2-8.9,69.3-8
				c28.6,1,66.2,9.3,88.2,34.1C262.1,89.9,237.3,169.5,188,171.4z"/>
			<path class="st7" d="M182.6,71.2l-5.2,9.8c0,0-0.8-9.9-3.1-14.6c-0.6-1.2-1.3-2.1-2.1-2.3c-2.2-0.7,10.3-14.4,10.3-14.4
				c0.4,0.1,2.8,1.6,5.8,3.6c3.2,2.2,7.1,4.8,9.7,6.5C203,63,182.6,71.2,182.6,71.2z"/>
			<polygon class="st8" points="194,108.9 173.2,108.9 176.6,76.2 194,76.2 			"/>
			<path class="st2" d="M177.7,75.3c0,0-3.8,4.6-3.2,7.7h4.6l3.4-3.8L177.7,75.3z"/>
			<path class="st8" d="M191.4,55.4l-14.5,20c0,0,3.8,5.3,5.5,5.6c1.7,0.3,11.9-23.6,11.9-23.6L191.4,55.4z"/>
			<polygon class="st8" points="175.9,71.4 176.1,71.4 177.4,76.2 175.9,77.8 			"/>
			<path class="st2" d="M175,81c0,0-0.7,11.2-1.4,13.4s0,22.7,0,22.7l6.7-2.8l-1.1-31.4L175,81z"/>
			<polygon class="st9" points="31.8,151.5 31.8,146 191.8,146 191.8,154.1 			"/>
			<g>
				<path class="st10" d="M188,171.4c15.8-0.6,29.1-9.3,38.4-22.4c-0.3-1-0.6-2-0.3-2.7c0.6,0.1,1.1,0.4,1.6,0.8
					c1.6-2.4,3-4.9,4.3-7.6c-1.9-3.8-2.5-11.4-2.5-11.4s0.3-4.5-0.9-6.2s0.1-2.2-1.3-3.8c-1.3-1.5-4.2-19.1-4.2-19.1
					s-0.1-5.2-1.3-6.6S222,73.1,202,61.1c-0.9-0.4-1.9-0.9-2.7-1.4c-1.5-0.9-3.2-2.1-3.9-3.4c0,0-1.1-1.5-1.8-0.8
					c-0.3,0.3-0.4,0.7-0.5,1.1c-0.1,0.1-0.1,0.3-0.1,0.4c-0.8,2.5-4.6,8.6-7.1,12.8c-1.4,2.3-2.4,4-2.5,4.4c-0.1,0.2-0.2,1-0.5,2
					c-0.2,0.8-0.4,1.7-0.7,2.7c-0.1,0.3-0.2,0.6-0.3,0.9c-0.1,0.3-0.2,0.6-0.3,0.9c-0.1,0.1-0.1,0.3-0.1,0.4c-1,3.5-2,7.1-2,7.1
					l-0.2,0.7l-1,3.2l-0.4,1.4l-1,3.2l-0.3,7.3l-0.1,0.9l-0.1,2.2l-0.1,1.9l-0.4,7.3l-0.3,6l-0.8,7.7l-0.1,0.9l-0.7,6.8l2.4,8.4
					l1.9,6.4l0.4,1.5l1.1,3.7l1.1,3.7l1.1,3.8l0.2,0.6v0.1l1.7,5.8h0.1C184,171.6,187,171.4,188,171.4z"/>
				<path class="st11" d="M188,171.4c15.8-0.6,29.1-9.3,38.4-22.4c-0.3-1-0.6-2-0.3-2.7c0.6,0.1,1.1,0.4,1.6,0.8
					c1.6-2.4,3-4.9,4.3-7.6c-1.9-3.8-2.5-11.4-2.5-11.4s0.3-4.5-0.9-6.2s0.1-2.2-1.3-3.8c-1.3-1.5-4.2-19.1-4.2-19.1
					s-0.1-5.2-1.3-6.6S222,73.1,202,61.1c-0.9-0.4-1.9-0.9-2.7-1.4c-1.5-0.9-3.2-2.1-3.9-3.4c0,0-1.1-1.5-1.8-0.8
					c-0.3,0.3-0.4,0.7-0.5,1.1c-0.1,0.1-0.1,0.3-0.1,0.4c-0.8,2.5-4.6,8.6-7.1,12.8c-1.4,2.3-2.4,4-2.5,4.4c-0.1,0.2-0.2,1-0.5,2
					c-0.2,0.8-0.4,1.7-0.7,2.7c-0.1,0.3-0.2,0.6-0.3,0.9c-0.1,0.3-0.2,0.6-0.3,0.9c-0.1,0.1-0.1,0.3-0.1,0.4c-1,3.5-2,7.1-2,7.1
					l-0.2,0.7l-1,3.2l-0.4,1.4l-1,3.2l-0.3,7.3l-0.1,0.9l-0.1,2.2l-0.1,1.9l-0.4,7.3l-0.3,6l-0.8,7.7l-0.1,0.9l-0.7,6.8l2.4,8.4
					l1.9,6.4l0.4,1.5l1.1,3.7l1.1,3.7l1.1,3.8l0.2,0.6v0.1l1.7,5.8h0.1C184,171.6,187,171.4,188,171.4z"/>
				<path class="st10" d="M226.3,149c0.4-0.6,0.9-1.3,1.3-1.9c-0.5-0.4-1-0.7-1.6-0.8C225.8,147,226,148,226.3,149z"/>
				<path class="st11" d="M226.3,149c0.4-0.6,0.9-1.3,1.3-1.9c-0.5-0.4-1-0.7-1.6-0.8C225.8,147,226,148,226.3,149z"/>
				<path class="st11" d="M226.3,149c0.4-0.6,0.9-1.3,1.3-1.9c-0.5-0.4-1-0.7-1.6-0.8C225.8,147,226,148,226.3,149z"/>
			</g>
			<path class="st4" d="M163.5,174.6c0,0.1-0.1,0.1-0.1,0.2l0,0C163.4,174.7,163.5,174.7,163.5,174.6L163.5,174.6z"/>
			<polygon class="st12" points="184.6,174.6 184.7,174.8 184.2,174.8 184.2,174.6 			"/>
			<path class="st3" d="M163.5,174.6c0,0.1-0.1,0.1-0.1,0.2l0,0C163.4,174.7,163.5,174.7,163.5,174.6L163.5,174.6z"/>
			<polygon class="st3" points="184.6,174.6 184.7,174.8 184.2,174.8 184.2,174.6 			"/>
			<path class="st12" d="M163.5,174.6c0,0.1-0.1,0.1-0.1,0.2l0,0C163.4,174.7,163.5,174.7,163.5,174.6L163.5,174.6z"/>
			<polygon class="st12" points="184.6,174.6 184.7,174.8 184.2,174.8 184.2,174.6 			"/>
			<path class="st13" d="M76.9,136.8l71.6,1.5c0.5,0,1-0.4,1-1c0-0.1,0-0.2-0.1-0.3l-11.2-30.1L90.1,106l-14.3,29.2
				c-0.3,0.6,0,1.3,0.6,1.6C76.6,136.8,76.7,136.8,76.9,136.8z"/>
			<path class="st14" d="M76.9,136.8l71.6,1.5c0.5,0,1-0.4,1-1c0-0.1,0-0.2-0.1-0.3l-11.2-30.1L90.1,106l-14.3,29.2
				c-0.3,0.6,0,1.3,0.6,1.6C76.6,136.8,76.7,136.8,76.9,136.8z"/>
			<path class="st13" d="M76.3,135.6l72.3,1.5l-9.9-29.8c-0.3-1-1.3-1.7-2.3-1.7L90,104.8L76.3,135.6z"/>
			<path class="st15" d="M82.3,128.8l8.7-19.1c0.4-0.8,1.2-1.4,2.1-1.4h21.6c1.3,0,2.3,1,2.3,2.3v19.8c0,1.3-1,2.3-2.3,2.3
				c-0.1,0-0.1,0-0.1,0L84.3,132c-1.3-0.1-2.2-1.1-2.2-2.4C82.1,129.4,82.2,129.1,82.3,128.8z"/>
			<path class="st16" d="M124.8,126.4l0.4-10.9c0-0.9,0.8-1.6,1.7-1.6h6.4c0.8,0,1.5,0.6,1.6,1.4l1.9,10.8c0.2,0.9-0.4,1.8-1.4,1.9
				c-0.1,0-0.2,0-0.3,0l-8.6,0.1C125.5,128.1,124.8,127.4,124.8,126.4C124.8,126.4,124.8,126.4,124.8,126.4z"/>
			<path class="st15" d="M40.4,55.6l24-2c0.7-0.1,1.4,0.3,1.7,1L88.8,106l-12.6,28.4c0.4-0.9,0.7,6-2.2,0.1L37.9,59.1
				C37.4,58.1,39.3,55.7,40.4,55.6z"/>
			<path class="st14" d="M40.4,55.6l24-2c0.7-0.1,1.4,0.3,1.7,1L88.8,106l-12.6,28.4c0.4-0.9,0.7,6-2.2,0.1L37.9,59.1
				C37.4,58.1,39.3,55.7,40.4,55.6z"/>
			<path class="st15" d="M40.4,55.6l25.3-3.2c0.7-0.1,1.4,0.3,1.7,1l22.7,51.4l-13.7,30.9L39.1,58c-0.4-0.8-0.1-1.8,0.8-2.2
				C40,55.7,40.2,55.6,40.4,55.6z"/>
			<path class="st17" d="M46.5,58.8L64,56c0.8-0.1,1.5,0.3,1.8,1l20.6,46.2c0.2,0.4,0.2,0.8-0.1,1.2l-9.5,18.8c-0.3,0.8-1.2,1-2,0.7
				c-0.3-0.2-0.5-0.4-0.7-0.7L45.3,61.1c-0.4-0.8-0.1-1.8,0.8-2.2C46.2,58.9,46.4,58.9,46.5,58.8z"/>
			<path class="st7" d="M122.1,107.8c0,0-2.8,4.5-10.8,2.4s-18.6,5.7-15.6,9.5c3,3.8,22.5-1.1,22.5-1.1l7.5-1.5l-0.5-6.2
				L122.1,107.8z"/>
			<path class="st3" d="M122.1,107.8c0,0-2.8,4.5-10.8,2.4s-18.6,5.7-15.6,9.5c3,3.8,22.5-1.1,22.5-1.1l7.5-1.5l-0.5-6.2
				L122.1,107.8z"/>
			<path class="st8" d="M124.7,107.5l-3.5-0.2l-2.1,0.6c0,0,6.7,1,4.9,10.1l7.3-0.4L124.7,107.5z"/>
			<path class="st3" d="M124.7,107.5l-3.5-0.2l-2.1,0.6c0,0,6.7,1,4.9,10.1l7.3-0.4L124.7,107.5z"/>
			<path class="st10" d="M170.6,87c0,0-9.5,5.4-12.2,10c0,0-2.2,1.1-2.2,2.1s-1.4,2.3-3.9,3.3l-2.5,1c0,0-2.8-0.7-3.1,0
				c-0.3,0.7-6.5,3-9.7,2.9c-3.2-0.1-15.7,1.1-15.7,1.1c4.7,2.1,7.3,7.3,6.3,12.4l29.6-1.3l11.2-2.5l6.6-6.6L170.6,87z"/>
			<path class="st3" d="M170.6,87c0,0-9.5,5.4-12.2,10c0,0-2.2,1.1-2.2,2.1s-1.4,2.3-3.9,3.3l-2.5,1c0,0-2.8-0.7-3.1,0
				c-0.3,0.7-6.5,3-9.7,2.9c-3.2-0.1-15.7,1.1-15.7,1.1c4.7,2.1,7.3,7.3,6.3,12.4l29.6-1.3l11.2-2.5l6.6-6.6L170.6,87z"/>
			<path class="st7" d="M127,126.4l-4.2-0.1l-4.9-0.1c0,0-23.1,1.8-22.7-5.6c0.4-7.4,18.2-10,20.7-7.9c1.9,1.6,6.2,2.9,8.2,3.4
				c0.7,0.2,1,0.3,1,0.3L127,126.4z"/>
			<path class="st3" d="M127,126.4l-4.2-0.1c-1.7-5.7,0.3-8.9,1.4-10.1c0.7,0.2,1,0.3,1,0.3L127,126.4z"/>
			<path class="st8" d="M129.8,126.7l-4.4,0.3l-2.1,0.2c-2.8-8.4,1.7-11.6,1.7-11.6h1.4l2.2,0.3L129.8,126.7z"/>
			<path class="st10" d="M175.9,71.4c0,0-4.1,2.7-5.3,6.6c-1.1,3.9-2.2,10.9-2.2,10.9s1.9,16.8,2.8,17.6c1,0.8,4.7,17.6,4.7,17.6
				l3.6-2.4l-4.7-21.2C174.8,100.6,177.9,73.4,175.9,71.4z"/>
			<path class="st3" d="M175.9,71.4c0,0-4.1,2.7-5.3,6.6c-1.1,3.9-2.2,10.9-2.2,10.9s1.9,16.8,2.8,17.6c1,0.8,4.7,17.6,4.7,17.6
				l3.6-2.4l-4.7-21.2C174.8,100.6,177.9,73.4,175.9,71.4z"/>
			<path class="st2" d="M145.9,174.6h0.3l-0.5,0.2L145.9,174.6z"/>
			<path class="st3" d="M145.9,174.6h0.3l-0.5,0.2L145.9,174.6z"/>
			<path class="st2" d="M145.9,174.6h0.3l-0.5,0.2L145.9,174.6z"/>
			<path class="st2" d="M163.5,174.6c0,0.1-0.1,0.1-0.1,0.2l0,0C163.4,174.7,163.5,174.7,163.5,174.6L163.5,174.6z"/>
			<polygon class="st2" points="184.7,174.8 184.2,174.8 184.2,174.6 184.6,174.6 			"/>
			<path class="st3" d="M152.1,108c1,2.1,2.1,4.3,3.8,5.9c0.3,0.3,0.7,0.5,1,0.2c0.1-0.1,0.1-0.3,0.1-0.4c-0.1-1-0.4-2-1-2.8
				c-0.5-0.8-1.2-1.6-1.7-2.4c-0.5-0.9-1-2.6-2.1-2.8C150.7,105.4,151.7,107.3,152.1,108z"/>
			<path class="st3" d="M188.3,53.3c-0.1,0.3-0.2,0.5-0.3,0.8c-2.1,6.3-7.3,10.9-13.8,12.2c-0.6-1.2-1.3-2.1-2.1-2.3
				c-2.2-0.7,10.3-14.4,10.3-14.4C182.9,49.8,185.3,51.4,188.3,53.3z"/>
			<path class="st7" d="M188.9,48.1c0,10.1-8.2,18.3-18.3,18.3s-18.3-8.2-18.3-18.3s8.2-18.3,18.3-18.3s18.3,8.2,18.3,18.2
				C188.9,48,188.9,48,188.9,48.1z"/>
			<path class="st3" d="M191.2,55.8l-14.5,20c0,0,3.8,5.3,5.5,5.6c1.7,0.3,11.9-23.6,11.9-23.6L191.2,55.8z"/>
			<polygon class="st3" points="184.6,174.6 184.7,174.8 184.2,174.8 184.2,174.6 			"/>
			<path class="st3" d="M199.2,60c-2,2.8-5.1,7.8-6,11.4c0,0-3.1,3.2-4.3,3s1.1,2.4,1.1,2.4l-12.2,16.9l1.7-5.2
				c0,0,3.6-12.8,3.8-13.9c0.2-1.1,9-14.4,9.7-17.7c0.5-2.7,2.3-0.3,2.3-0.3C196,57.8,197.7,59.1,199.2,60z"/>
			<path class="st10" d="M199.2,59.6c-2,2.8-5.1,7.8-6,11.4c0,0-3.1,3.2-4.3,3c-1.2-0.2,1.1,2.4,1.1,2.4l-12.2,16.9l1.7-5.2
				c0,0,3.6-12.8,3.8-14s9-14.4,9.7-17.7c0.5-2.7,2.3-0.3,2.3-0.3C196,57.5,197.7,58.7,199.2,59.6z"/>
			<path class="st3" d="M215.6,94.7c0.1,3.9-5.6,9.2-5.9,9.5C209.4,104.6,192,119,192,119l-12.5,9.6c-1.4,1.1-3.1,2-4.9,2.3l0.9-8.6
				l0.8-17.4c2-2.2,3.9-4.5,3.9-5.2c0.1-1.5,3.3-3.1,3.3-3.1s2.2-1.9,1.9-2.9c-0.4-1.1,1.2-6.2,1.2-6.2
				c0.8-14.5,15.7-15.9,15.7-15.9s7.2,2.8,12.2,5.9S215.5,90.9,215.6,94.7z"/>
			<path class="st3" d="M129.8,126.7l-4.4,0.3c-1.9-3.2,0.7-11.5,0.7-11.5h0.3l2.2,0.3L129.8,126.7z"/>
			<path class="st10" d="M202.3,70.6c0,0-15,1.4-15.7,15.9c0,0-1.5,5.1-1.1,6.2c0.4,1.1-1.9,2.9-1.9,2.9s-3.2,1.6-3.3,3.1
				c-0.1,1.5-8.2,9.7-8.2,9.7s-3.4,3.9-11.2,4.2s-11.5,2.8-11.5,2.8s-3.8-2.7-6.6-1.9c-2.8,0.8-16.3,1.9-16.3,1.9
				s-3.6,11.9,0.9,12.6c0.5,0.1,44.6,1.6,44.6,1.6s3,1.4,7.6-2.1c4.6-3.5,12.5-9.6,12.5-9.6s17.4-14.4,17.7-14.7
				c0.3-0.3,6-5.6,5.9-9.5c-0.1-3.9,4-14.4-1.1-17.4S202.3,70.6,202.3,70.6z"/>
			<path class="st3" d="M188.9,48.1c0,1.9-0.3,3.9-0.9,5.7c-0.3-0.3-0.5-0.6-0.7-0.9c-0.9-1.3-1.7-2.6-2.6-3.9
				c-0.7-1.2-1.5-2.2-2.6-3c-1.1-0.8-2.6-1.1-3.8-0.4c-1,0.6-1.5,1.9-1.6,3c-0.1,1.2,0,2.4,0.1,3.6c0.1,0.4-0.1,0.9-0.3,1.3
				c-0.4,0.3-0.9,0.5-1.4,0.5l-1.6,0.2c-0.6,0.2-1.3-0.1-1.5-0.7c0,0,0,0,0-0.1c-1.4-2.4-2.3-5.5-4.8-6.7c-1.6-0.7-3.6-0.7-4.6-2.1
				c-0.7-1-0.6-2.2-0.4-3.4c0.2-1.3,0.5-2.6,1-3.9c0.3-0.9,0.9-2.7-0.5-2.8c-1-0.1-2.3,0.9-2.8,1.6s-0.6,1.7-1,2.6
				c-0.7,1.4-1.9,2.6-3.3,3.1c-0.8,0.3-1.5,0.5-2.3,0.6c3.1-9.6,13.4-14.9,23.1-11.8C183.8,33,188.9,40.1,188.9,48.1L188.9,48.1z"/>
			<path class="st10" d="M159.8,35.7c-0.5,0.8-0.6,1.7-1,2.5c-0.7,1.4-1.9,2.6-3.3,3.1c-1.5,0.5-3,0.8-4.6,0.8
				c-2.6,0.1-5.4-0.3-7-2.2c1.2-0.9,2-2.3,2.2-3.8c0.2-1.1-0.1-2.4,0.7-3.4c0.3-0.4,0.8-0.8,1.3-1c2.8-2,5.1-4.6,7.7-7
				s5.7-4.3,9.1-4.4c4.6-0.2,8.7,3.1,13.3,3.8c1.4,0.2,2.8,0.1,4.2,0.5c1.5,0.5,3,1.2,4.3,2.2c1.2,0.7,2.2,1.6,3,2.6
				c0.6,0.9,1,2,1.3,3c0.6,2.2,1,4.6,1.1,6.9c0.1,2.4,0,4.9,0.3,7.3c0.3,2.4,1,4.9,2.7,6.7c-1.2,0.4-2.4,0.7-3.7,0.9
				c-0.8,0.2-1.6,0.1-2.3-0.2c-0.6-0.4-1.1-0.9-1.4-1.6l-2.6-3.9c-0.7-1.2-1.5-2.2-2.6-3c-1.1-0.8-2.6-1.1-3.8-0.4
				c-1,0.6-1.5,1.9-1.6,3c-0.1,1.2,0,2.4,0.1,3.6c0.1,0.4-0.1,0.9-0.3,1.3c-0.4,0.3-0.9,0.5-1.4,0.5l-1.6,0.2
				c-0.6,0.2-1.3-0.1-1.5-0.7c0,0,0,0,0-0.1c-1.4-2.4-2.3-5.5-4.8-6.7c-1.6-0.7-3.6-0.7-4.6-2.1c-0.7-1-0.6-2.2-0.4-3.4
				c0.2-1.3,0.5-2.6,1-3.9c0.3-0.9,0.9-2.7-0.5-2.9C161.6,33.9,160.3,34.9,159.8,35.7z"/>
			<path class="st3" d="M201.2,78.7c1.4-0.2,2.8-0.3,4.1,0.2c-3.4-1.4-8.8-0.9-11.9,1C193.8,80.6,200.2,78.9,201.2,78.7z"/>
			<path class="st3" d="M202.9,83.2c3.3,0.2,6.8,0.7,10-0.4c-2.7-0.9-5.6-0.3-8.4-0.6c-2.2-0.2-4.5-1-6.7-0.4
				c-0.9,0.2-4.2,1.8-4,2.9C196.6,83.4,199.8,82.9,202.9,83.2z"/>
			<path class="st3" d="M194,90.5c0.7-0.1,1.4,0,2.1,0.2c2.5,0.6,5.1,0.9,7.7,0.8c2,0,4.1-0.3,5.6-1.6L194,90.5z"/>
			<path class="st3" d="M183.2,107.5c2.3,1.1,4.9,1.5,7.5,1.4c2.6-0.2,5.1-0.7,7.5-1.5c1.1-0.3,2.3-0.7,2.9-1.7L183.2,107.5z"/>
			<path class="st3" d="M207.3,109.9c5.1,2.9,10.8,4.7,16.6,5.2c-2.9-1.2-5.9-2.3-8.9-3.4c-3-1.1-6.2-1.9-9.4-2.5
				C206.2,109.3,206.8,109.6,207.3,109.9z"/>
			<path class="st3" d="M215.5,106.8c1,0.2,2.1,0.2,3.1,0.2c0.5,0,1.2-0.1,1.5-0.5c-2.3,0.1-4.6-0.5-6.9-1c-0.7-0.2-1.8-0.5-2.3-0.1
				C211.9,106,214.2,106.6,215.5,106.8z"/>
			<path class="st3" d="M170,116.9c-0.1,0.9-0.2,1.9,0.3,2.6c0.3,0.3,0.6,0.6,1,0.7c-0.3-0.1-0.5-2.6-0.6-3c-0.1-0.7,0-2.1-0.5-2.6
				C170.1,115.4,170.1,116.1,170,116.9z"/>
			<path class="st3" d="M172.9,115.9c0.4,1.5,1.4,2.9,2.7,3.7c-1-1.2-1.3-2.7-2.1-4c-0.3-0.4-0.6-1-1.1-1.1
				C172.5,115,172.7,115.5,172.9,115.9z"/>
			<path class="st3" d="M170.5,100.2c-1.6,1-3.6,1.2-5.4,0.7c-0.4-0.1-1.4-0.5-1.1-1.1c0.2-0.6,1.4-0.2,1.8-0.1l2.4,0.3
				C168.6,100,170.1,100.5,170.5,100.2z"/>
			<path class="st3" d="M162.5,104.1c1.1-0.2,2.1,0.7,3.2,1c1.1,0.4,2.4,0.5,3.6,0.5c0.6,0,1.3-0.1,1.7-0.5
				C168.1,104.4,165.4,103.7,162.5,104.1z"/>
			<g class="st18">
				<path d="M146.4,33.3c-0.2,0.8-0.3,1.6-0.3,2.4c0.1-0.3,0.1-0.5,0.2-0.8C146.4,34.4,146.4,33.9,146.4,33.3z"/>
				<path d="M162.7,34c0.5,0.1,0.9,0.5,0.9,1v0.1c0.3-0.9,0.4-2-0.7-2.2c-1-0.1-2.3,0.9-2.8,1.6c-0.5,0.7-0.6,1.7-1,2.6
					c-0.7,1.4-1.9,2.6-3.3,3.1c-1.5,0.5-3,0.8-4.6,0.8c-2.3,0.1-4.8-0.3-6.5-1.8c-0.2,0.2-0.4,0.4-0.7,0.6c1.6,2,4.5,2.3,7,2.2
					c1.6,0,3.1-0.3,4.6-0.8c1.5-0.5,2.7-1.7,3.3-3.1c0.3-0.8,0.4-1.8,1-2.5C160.5,34.9,161.7,33.9,162.7,34z"/>
				<path d="M191.4,52.9c-0.8,0.2-1.6,0.1-2.3-0.2c-0.6-0.4-1.1-0.9-1.4-1.6c-0.9-1.3-1.7-2.6-2.6-3.9c-0.7-1.2-1.5-2.2-2.6-3
					c-1.1-0.8-2.7-1.1-3.8-0.4c-1,0.6-1.5,1.9-1.6,3c0,0.1,0,0.1,0,0.2c0.2-0.9,0.7-1.6,1.5-2.1c1.1-0.7,2.7-0.4,3.8,0.4
					c1,0.9,1.9,1.9,2.6,3c0.9,1.3,1.7,2.6,2.6,3.9c0.3,0.7,0.8,1.1,1.4,1.6c0.8,0.3,1.6,0.4,2.3,0.2c1.3-0.2,2.5-0.5,3.7-0.9
					c-0.2-0.3-0.4-0.5-0.7-0.8C193.3,52.6,192.4,52.8,191.4,52.9z"/>
				<path d="M176.8,51.8c-0.4,0.3-0.9,0.5-1.4,0.5l-1.6,0.2c-0.6,0.2-1.3-0.1-1.5-0.7c0,0,0,0,0-0.1c-1.4-2.4-2.3-5.5-4.8-6.7
					c-1.6-0.7-3.6-0.7-4.6-2.1c-0.5-0.9-0.7-1.9-0.5-2.8c0,0.2-0.1,0.3-0.1,0.5c-0.2,1.1-0.3,2.4,0.4,3.4c1,1.4,3,1.4,4.6,2.1
					c2.6,1.2,3.5,4.2,4.8,6.7c0.1,0.3,0.3,0.5,0.6,0.8c0.3,0.1,0.6,0.1,0.9,0.1l1.6-0.2c0.5,0,1-0.2,1.4-0.5
					c0.3-0.4,0.4-0.8,0.3-1.3l0,0C176.9,51.7,176.8,51.7,176.8,51.8z"/>
			</g>
		</g>
	</g>
	<g>
		<path class="st19" d="M73.2,78.8c0.4,0.7,0.7,1.5,0.9,2.4c0.7,2.5,1.1,5,0.8,7.5c-0.3,1.8-0.8,3.4-2.2,4.4c-1,0.7-2.1,0.8-3.2,0.4
			c-1.8-0.4-3.3-1.6-4.6-3c-1-1.1-1.9-2.3-2.7-3.7c-0.8-1.3-1.4-2.6-1.9-3.9c-1-2.9-1.7-5.9-1.3-9c0.3-1.7,0.8-3.3,2.1-4.2
			c0.8-0.5,1.6-0.8,2.7-0.7c2.2,0.4,4,1.7,5.6,3.4c0.8,0.9,1.5,1.8,2.1,2.8C72.1,76.3,72.8,77.4,73.2,78.8z M66.2,89.6
			c-0.1-0.6-0.2-1.1-0.3-1.7c-0.4-2.1-0.4-4,0.3-5.9c0.1-0.2,0.1-0.3-0.2-0.5c-0.7-0.6-1.2-1.3-1.6-2.1c-0.4-0.9-0.8-1.7-1-2.7
			c-0.2-0.9-0.3-1.7-0.2-2.5c0.2-1.5,1.2-2.2,2.5-1.7c0.4,0.2,0.9,0.4,1.3,0.8c1.1,0.9,1.9,2.1,2.4,3.5c0.4,1,0.7,2,0.8,3
			c0,0.3,0.1,0.3,0.3,0.4c1.3,0.7,2.2,1.7,3,2.9c0.3,0.4,0.4,0.8,0.8,1.1c-0.2-1.4-0.5-2.8-1-4.1c-0.7-1.7-1.5-3.4-2.6-4.9
			s-2.3-2.8-3.9-3.8c-0.8-0.5-1.7-0.8-2.6-0.8c-1.6,0.1-2.7,1-3.2,2.7c-0.4,1.2-0.5,2.4-0.4,3.8c0.1,1.7,0.5,3.4,1.1,5.1
			c0.5,1.6,1.4,3.1,2.2,4.5C64.4,87.8,65.2,88.8,66.2,89.6z M67.6,90.2c0.2,0.3,0.2,0.7,0.5,0.9c1.6,0.9,3.3,1,4.6-0.4
			c0.9-1,1.3-2.3,1.4-3.8c0-0.2,0.1-0.4-0.1-0.7c-0.4-1.1-1-2.1-1.7-2.9c-0.7-0.8-1.4-1.5-2.4-1.7c-0.2-0.1-0.2-0.1-0.3,0.1
			c-0.4,0.8-1,1.1-1.9,0.9c-0.2-0.1-0.3,0-0.4,0.2c-0.1,0.2-0.2,0.4-0.3,0.7C66.6,85.7,66.9,87.9,67.6,90.2z M68.4,76.9
			c-0.2-0.4-0.3-0.8-0.6-1.1c-0.5-0.7-1-1.3-1.8-1.6c-0.7-0.3-1.3,0-1.5,0.7c-0.2,0.7-0.1,1.5,0.1,2.3c0.4,1.5,1.1,2.6,2.3,3.4
			c0.9,0.7,1.9,0.4,2.1-0.9C69.1,78.7,68.8,77.8,68.4,76.9z"/>
	</g>
	<g>
		<path class="st19" d="M71.2,97.7l5.4-4.2c0.3-0.2,0.7-0.2,0.9,0.1c0.2,0.3,0.2,0.7-0.1,0.9l-4.9,4.8c-0.4,0.4-1.1,0.4-1.5,0
			c-0.4-0.4-0.4-1.1,0-1.5C71.1,97.8,71.1,97.7,71.2,97.7z"/>
	</g>
	<g>
		<path class="st19" d="M72.9,101.1l4.8-5.2c0.3-0.3,0.7-0.3,0.9-0.1c0.3,0.2,0.3,0.6,0.1,0.9l-4.2,5.8c-0.4,0.5-1,0.6-1.5,0.2
			C72.5,102.3,72.4,101.7,72.9,101.1C72.8,101.2,72.9,101.2,72.9,101.1z"/>
	</g>
</g>
</svg>
