<?xml version="1.0" encoding="utf-8"?>
<!-- Generator: Adobe Illustrator 22.0.0, SVG Export Plug-In . SVG Version: 6.00 Build 0)  -->
<svg version="1.1" id="Capa_1" xmlns="http://www.w3.org/2000/svg" xmlns:xlink="http://www.w3.org/1999/xlink" x="0px" y="0px"
	 viewBox="0 0 33 33" style="enable-background:new 0 0 33 33;" xml:space="preserve">
<style type="text/css">
	.st0{display:none;}
	.st1{display:inline;}
	.st2{fill:#FFFFFF;stroke:#FFFFFF;stroke-width:7.238424e-02;stroke-miterlimit:10;}
	.st3{fill:#FFFFFF;}
</style>
<g id="Capa_2_1_" class="st0">
	<rect x="-222.4" y="-222.4" class="st1" width="477.9" height="477.9"/>
</g>
<g id="Capa_1_1_">
	<path class="st2" d="M3.3,14.2h2.2v1.7c0,0.3,0.2,0.6,0.4,0.7c0.2,0.2,0.6,0.2,0.8,0l4.8-2.4h4.8c1.8,0,3.3-1.5,3.3-3.3v-5
		c0-1.8-1.5-3.3-3.3-3.3h-13C1.5,2.6,0,4,0,5.9v5C0,12.7,1.5,14.2,3.3,14.2z M1.7,5.9c0-0.9,0.7-1.7,1.7-1.7h13
		C17.2,4.2,18,5,18,5.9v5c0,0.9-0.7,1.7-1.7,1.7h-5c-0.1,0-0.3,0-0.4,0.1l-3.8,1.9v-1.2c0-0.5-0.4-0.8-0.8-0.8h-3
		c-0.9,0-1.7-0.7-1.7-1.7V5.9z"/>
	<path class="st3" d="M15.6,27.8h5.1l5.1,2.6c0.3,0.1,0.6,0.1,0.9,0s0.4-0.4,0.4-0.8v-1.8h2.3c2,0,3.6-1.6,3.6-3.6v-5.3
		c0-2-1.6-3.6-3.6-3.6H15.6c-2,0-3.6,1.6-3.6,3.6v5.3C12,26.2,13.6,27.8,15.6,27.8z M13.8,18.9c0-1,0.8-1.8,1.8-1.8h13.9
		c1,0,1.8,0.8,1.8,1.8v5.3c0,1-0.8,1.8-1.8,1.8h-3.2c-0.5,0-0.9,0.4-0.9,0.9v1.2l-4-2C21.2,26,21.1,26,20.9,26h-5.3
		c-1,0-1.8-0.8-1.8-1.8V18.9z"/>
	<circle class="st3" cx="18.9" cy="21.6" r="0.9"/>
	<circle class="st3" cx="22.5" cy="21.6" r="0.9"/>
	<circle class="st3" cx="26.1" cy="21.6" r="0.9"/>
	<circle class="st3" cx="6.4" cy="8.4" r="0.9"/>
	<circle class="st3" cx="10.1" cy="8.4" r="0.9"/>
	<circle class="st3" cx="13.7" cy="8.4" r="0.9"/>
</g>
</svg>
