<?xml version="1.0" encoding="utf-8"?>
<!-- Generator: Adobe Illustrator 22.0.0, SVG Export Plug-In . SVG Version: 6.00 Build 0)  -->
<svg version="1.1" id="Capa_1" xmlns="http://www.w3.org/2000/svg" xmlns:xlink="http://www.w3.org/1999/xlink" x="0px" y="0px"
	 viewBox="0 0 33 33" style="enable-background:new 0 0 33 33;" xml:space="preserve">
<style type="text/css">
	.st0{fill:#FFFFFF;}
</style>
<g>
	<g>
		<path class="st0" d="M31.8,16.6c-0.3,0-0.5-0.1-0.7-0.2L16.4,5.5L2,16.4c-0.5,0.4-1.3,0.3-1.7-0.2c-0.4-0.5-0.3-1.3,0.2-1.7
			L15.7,3c0.4-0.3,1-0.3,1.5,0l15.4,11.4c0.5,0.4,0.7,1.2,0.3,1.7C32.5,16.4,32.1,16.6,31.8,16.6z"/>
	</g>
	<g>
		<path class="st0" d="M26.2,30.3H6.6c-2.1,0-3.8-1.7-3.8-3.8v-13c0-0.7,0.6-1.2,1.2-1.2s1.2,0.6,1.2,1.2v13c0,0.7,0.6,1.3,1.3,1.3
			h19.6c0.7,0,1.3-0.6,1.3-1.3v-13c0-0.7,0.6-1.2,1.2-1.2c0.7,0,1.2,0.6,1.2,1.2v13C30,28.6,28.3,30.3,26.2,30.3z"/>
	</g>
</g>
</svg>
