<?xml version="1.0" encoding="utf-8"?>
<!-- Generator: Adobe Illustrator 22.0.0, SVG Export Plug-In . SVG Version: 6.00 Build 0)  -->
<svg version="1.1" id="Capa_1" xmlns="http://www.w3.org/2000/svg" xmlns:xlink="http://www.w3.org/1999/xlink" x="0px" y="0px"
	 viewBox="0 0 33 33" style="enable-background:new 0 0 33 33;" xml:space="preserve">
<style type="text/css">
	.st0{fill:#FFFFFF;}
</style>
<g>
	<g>
		<path class="st0" d="M16.5,13.4c3.1,0,5.6-2.5,5.6-5.6s-2.5-5.6-5.6-5.6S11,4.7,11,7.8S13.5,13.4,16.5,13.4z M16.5,4.1
			c2,0,3.7,1.6,3.7,3.7s-1.6,3.7-3.7,3.7s-3.7-1.6-3.7-3.7S14.5,4.1,16.5,4.1z"/>
		<path class="st0" d="M27.9,13.4c1.9,0,3.5-1.6,3.5-3.5s-1.6-3.5-3.5-3.5s-3.5,1.6-3.5,3.5S25.9,13.4,27.9,13.4z M27.9,8.2
			c0.9,0,1.6,0.7,1.6,1.6s-0.7,1.6-1.6,1.6c-0.9,0-1.6-0.7-1.6-1.6S27,8.2,27.9,8.2z"/>
		<path class="st0" d="M28.6,15.5h-1.5c-1.8,0-3.3,1-4,2.5c-1.4-1.6-3.5-2.5-5.7-2.5h-1.8c-2.3,0-4.3,1-5.7,2.5
			c-0.7-1.5-2.2-2.5-4-2.5H4.5c-2.4,0-4.4,1.9-4.4,4.3v7c0,1,0.8,1.9,1.9,1.9h5.9c0.1,1.1,1.1,2.1,2.2,2.1H23c1.2,0,2.1-0.9,2.2-2.1
			H31c1.1,0,2-0.9,2-1.9v-7C33,17.5,31,15.5,28.6,15.5L28.6,15.5z M2,19.9c0-1.3,1.1-2.4,2.4-2.4H6c1.3,0,2.4,1.1,2.4,2.4v0.7
			c-0.6,1.7-0.5,2.7-0.5,6.3H2V19.9z M23.3,28.6c0,0.2-0.1,0.3-0.3,0.3H10.1c-0.2,0-0.3-0.1-0.3-0.3v-5.3c0-3.2,2.6-5.8,5.8-5.8h1.8
			c3.2,0,5.8,2.6,5.8,5.8V28.6z M31.1,26.8c0,0,0.4,0-5.8,0c0-3.6,0.1-4.6-0.5-6.3v-0.7c0-1.3,1.1-2.4,2.4-2.4h1.5
			c1.3,0,2.4,1.1,2.4,2.4V26.8z"/>
		<path class="st0" d="M5.2,13.4c1.9,0,3.5-1.6,3.5-3.5S7.2,6.3,5.2,6.3S1.7,7.9,1.7,9.8S3.3,13.4,5.2,13.4z M5.2,8.2
			c0.9,0,1.6,0.7,1.6,1.6s-0.7,1.6-1.6,1.6s-1.6-0.7-1.6-1.6S4.4,8.2,5.2,8.2z"/>
	</g>
</g>
</svg>
